<svg t="1586933947834" class="icon" viewBox="0 0 1024 1024" version="1.1" xmlns="http://www.w3.org/2000/svg" p-id="5475" width="200" height="200"><path d="M340.138667 782.08a389.376 389.376 0 0 1-25.045334-6.570667c0.512 0.128-28.117333 13.909333-67.413333 36.010667l-1.834667 1.066667c-32.085333 18.048-41.813333 23.381333-54.784 29.824-27.264 13.44-38.314667 17.066667-51.84 7.552-19.114667-13.482667-17.962667-20.821333 1.28-104.789334l0.213334-0.810666c6.442667-28.117333 8.874667-39.338667 10.752-51.072a114.346667 114.346667 0 0 0 1.706666-14.933334v-0.384c0.128 0.426667 0.597333 1.322667 2.304 3.2l0.938667 0.981334C85.12 612.522667 44.245333 518.4 44.245333 417.962667c0-206.72 172.074667-374.058667 384-374.058667a387.328 387.328 0 0 1 296.362667 136.106667l22.357333 7.68c138.837333 55.253333 232.96 195.029333 232.96 350.848 0 101.504-36.949333 194.56-103.424 265.514666 0.213333 2.901333 0.682667 6.826667 1.450667 11.776 1.578667 9.941333 1.578667 9.898667 8.96 46.250667l2.090667 10.453333c13.269333 66.986667 15.488 90.410667-4.266667 103.509334a22.570667 22.570667 0 0 1-19.114667 4.949333 41.216 41.216 0 0 1-9.984-2.986667 167.210667 167.210667 0 0 1-18.261333-9.386666 799.402667 799.402667 0 0 1-22.144-13.397334l-24.704-15.445333-4.010667-2.517333c-20.096-12.501333-33.621333-20.522667-44.416-26.154667a102.826667 102.826667 0 0 0-13.226666-5.973333l0.426666 0.085333c1.450667 0.213333 3.84-0.256 8.618667-3.712l-8.789333 3.712c-47.018667 8.192-75.946667 12.586667-103.594667 15.232-111.146667-2.858667-210.56-50.133333-280.149333-127.146667a21.248 21.248 0 0 1-5.248-11.178666z m63.744 9.173333a345.173333 345.173333 0 0 0 220.16 86.613334c22.954667-2.304 50.005333-6.4 93.610666-13.952 16-8.832 30.933333-0.554667 91.434667 37.12l4.053333 2.56 24.618667 15.36c6.869333 4.309333 12.501333 7.722667 17.28 10.538666a491.690667 491.690667 0 0 0-7.893333-48.64l-2.048-10.24c-7.637333-37.546667-7.552-37.290667-9.301334-48.170666-3.626667-23.253333-3.84-32.725333 4.821334-42.581334 62.336-64.298667 96.64-148.608 96.64-241.322666 0-123.904-66.986667-236.330667-168.234667-293.205334a364.714667 364.714667 0 0 1 43.221333 172.629334c0 206.72-172.032 374.058667-384 374.058666-8.106667 0-16.256-0.256-24.362666-0.768z m-221.781334-36.522666c-5.888 25.6-8.618667 38.4-10.453333 49.664l0.512-0.256c12.032-5.930667 21.504-11.136 52.778667-28.757334l1.834666-1.024c66.261333-37.290667 82.56-45.141333 100.565334-39.722666a350.72 350.72 0 0 0 100.906666 14.72c188.672 0 341.333333-148.48 341.333334-331.392 0-182.912-152.661333-331.392-341.333334-331.392-188.629333 0-341.333333 148.48-341.333333 331.392 0 89.130667 36.394667 172.629333 100.096 234.410666 14.848 14.378667 13.738667 21.248-4.693333 101.546667l-0.213334 0.810667z" p-id="5476"></path><path d="M256 426.666667m-42.666667 0a42.666667 42.666667 0 1 0 85.333334 0 42.666667 42.666667 0 1 0-85.333334 0Z" p-id="5477"></path><path d="M426.666667 426.666667m-42.666667 0a42.666667 42.666667 0 1 0 85.333333 0 42.666667 42.666667 0 1 0-85.333333 0Z" p-id="5478"></path><path d="M597.333333 426.666667m-42.666666 0a42.666667 42.666667 0 1 0 85.333333 0 42.666667 42.666667 0 1 0-85.333333 0Z" p-id="5479"></path></svg>